<svg width="24" height="24" viewBox="0 0 24 24" fill="none" xmlns="http://www.w3.org/2000/svg">
<path d="M14.1148 9.98247L6.34479 5.24997C5.99979 5.05497 5.51229 5.52747 5.69979 5.87997L10.3123 13.8L18.2323 18.4125C18.3217 18.4449 18.4186 18.4509 18.5113 18.4297C18.604 18.4085 18.6887 18.361 18.7552 18.293C18.8216 18.225 18.8671 18.1392 18.8861 18.046C18.9051 17.9528 18.8968 17.8561 18.8623 17.7675L14.1148 9.98247ZM11.1148 12.9825L13.3648 10.7325L16.7773 16.3125L11.1148 12.9825Z" fill="#979797"/>
<path d="M12 0C9.62663 0 7.30655 0.703787 5.33316 2.02236C3.35977 3.34094 1.8217 5.21508 0.913451 7.4078C0.00519937 9.60051 -0.232441 12.0133 0.230582 14.3411C0.693604 16.6689 1.83649 18.807 3.51472 20.4853C5.19295 22.1635 7.33115 23.3064 9.65892 23.7694C11.9867 24.2324 14.3995 23.9948 16.5922 23.0865C18.7849 22.1783 20.6591 20.6402 21.9776 18.6668C23.2962 16.6934 24 14.3734 24 12C24 8.8174 22.7357 5.76515 20.4853 3.51472C18.2348 1.26428 15.1826 0 12 0V0ZM12.75 22.4625V20.6475H11.25V22.4625C8.7345 22.28 6.36875 21.1981 4.58535 19.4147C2.80194 17.6312 1.72005 15.2655 1.53751 12.75H3.3525V11.25H1.53751C1.72005 8.7345 2.80194 6.36875 4.58535 4.58534C6.36875 2.80193 8.7345 1.72004 11.25 1.5375V3.3525H12.75V1.5375C15.2655 1.72004 17.6313 2.80193 19.4147 4.58534C21.1981 6.36875 22.28 8.7345 22.4625 11.25H20.6475V12.75H22.4625C22.28 15.2655 21.1981 17.6312 19.4147 19.4147C17.6313 21.1981 15.2655 22.28 12.75 22.4625V22.4625Z" fill="#979797"/>
</svg>
