<svg width="24" height="26" viewBox="0 0 24 26" fill="none" xmlns="http://www.w3.org/2000/svg">
<path fill-rule="evenodd" clip-rule="evenodd" d="M13.8314 9.17468C13.9057 9.09901 13.994 9.03898 14.0911 8.99802C14.1883 8.95706 14.2925 8.93597 14.3977 8.93597C14.5029 8.93597 14.6071 8.95706 14.7043 8.99802C14.8015 9.03898 14.8897 9.09901 14.964 9.17468L18.1636 12.4247C18.2381 12.5002 18.2972 12.5898 18.3375 12.6885C18.3778 12.7872 18.3986 12.8931 18.3986 12.9999C18.3986 13.1068 18.3778 13.2126 18.3375 13.3113C18.2972 13.41 18.2381 13.4997 18.1636 13.5752L14.964 16.8252C14.8138 16.9777 14.6101 17.0635 14.3977 17.0635C14.1853 17.0635 13.9816 16.9777 13.8314 16.8252C13.6812 16.6726 13.5968 16.4657 13.5968 16.2499C13.5968 16.0342 13.6812 15.8272 13.8314 15.6747L16.4662 12.9999L13.8314 10.3252C13.7569 10.2497 13.6978 10.16 13.6575 10.0613C13.6171 9.96262 13.5964 9.8568 13.5964 9.74993C13.5964 9.64305 13.6171 9.53723 13.6575 9.43852C13.6978 9.33981 13.7569 9.25015 13.8314 9.17468ZM11.7645 9.17468C11.6902 9.09901 11.6019 9.03898 11.5047 8.99802C11.4075 8.95706 11.3034 8.93597 11.1981 8.93597C11.0929 8.93597 10.9888 8.95706 10.8916 8.99802C10.7944 9.03898 10.7061 9.09901 10.6318 9.17468L7.43226 12.4247C7.35777 12.5002 7.29867 12.5898 7.25835 12.6885C7.21802 12.7872 7.19727 12.8931 7.19727 12.9999C7.19727 13.1068 7.21802 13.2126 7.25835 13.3113C7.29867 13.41 7.35777 13.4997 7.43226 13.5752L10.6318 16.8252C10.782 16.9777 10.9857 17.0635 11.1981 17.0635C11.4106 17.0635 11.6143 16.9777 11.7645 16.8252C11.9147 16.6726 11.999 16.4657 11.999 16.2499C11.999 16.0342 11.9147 15.8272 11.7645 15.6747L9.12963 12.9999L11.7645 10.3252C11.839 10.2497 11.8981 10.16 11.9384 10.0613C11.9787 9.96262 11.9995 9.8568 11.9995 9.74993C11.9995 9.64305 11.9787 9.53723 11.9384 9.43852C11.8981 9.33981 11.839 9.25015 11.7645 9.17468V9.17468Z" fill="#979797"/>
<path d="M4.8021 0H20.7999C21.6485 0 22.4623 0.34241 23.0623 0.951903C23.6624 1.5614 23.9995 2.38805 23.9995 3.25V22.75C23.9995 23.612 23.6624 24.4386 23.0623 25.0481C22.4623 25.6576 21.6485 26 20.7999 26H4.8021C3.95352 26 3.1397 25.6576 2.53967 25.0481C1.93963 24.4386 1.60254 23.612 1.60254 22.75V21.125H3.20232V22.75C3.20232 23.181 3.37087 23.5943 3.67089 23.899C3.9709 24.2038 4.37781 24.375 4.8021 24.375H20.7999C21.2242 24.375 21.6311 24.2038 21.9311 23.899C22.2311 23.5943 22.3997 23.181 22.3997 22.75V3.25C22.3997 2.81902 22.2311 2.4057 21.9311 2.10095C21.6311 1.7962 21.2242 1.625 20.7999 1.625H4.8021C4.37781 1.625 3.9709 1.7962 3.67089 2.10095C3.37087 2.4057 3.20232 2.81902 3.20232 3.25V4.875H1.60254V3.25C1.60254 2.38805 1.93963 1.5614 2.53967 0.951903C3.1397 0.34241 3.95352 0 4.8021 0V0Z" fill="#979797"/>
<path d="M1.59978 8.125V7.3125C1.59978 7.09701 1.68405 6.89035 1.83406 6.73798C1.98407 6.5856 2.18753 6.5 2.39967 6.5C2.61182 6.5 2.81527 6.5856 2.96528 6.73798C3.11529 6.89035 3.19956 7.09701 3.19956 7.3125V8.125H3.99945C4.2116 8.125 4.41505 8.2106 4.56506 8.36298C4.71507 8.51535 4.79934 8.72201 4.79934 8.9375C4.79934 9.15299 4.71507 9.35965 4.56506 9.51202C4.41505 9.6644 4.2116 9.75 3.99945 9.75H0.799891C0.587746 9.75 0.384291 9.6644 0.234283 9.51202C0.084274 9.35965 0 9.15299 0 8.9375C0 8.72201 0.084274 8.51535 0.234283 8.36298C0.384291 8.2106 0.587746 8.125 0.799891 8.125H1.59978ZM1.59978 13V12.1875C1.59978 11.972 1.68405 11.7653 1.83406 11.613C1.98407 11.4606 2.18753 11.375 2.39967 11.375C2.61182 11.375 2.81527 11.4606 2.96528 11.613C3.11529 11.7653 3.19956 11.972 3.19956 12.1875V13H3.99945C4.2116 13 4.41505 13.0856 4.56506 13.238C4.71507 13.3903 4.79934 13.597 4.79934 13.8125C4.79934 14.028 4.71507 14.2347 4.56506 14.387C4.41505 14.5394 4.2116 14.625 3.99945 14.625H0.799891C0.587746 14.625 0.384291 14.5394 0.234283 14.387C0.084274 14.2347 0 14.028 0 13.8125C0 13.597 0.084274 13.3903 0.234283 13.238C0.384291 13.0856 0.587746 13 0.799891 13H1.59978ZM1.59978 17.875V17.0625C1.59978 16.847 1.68405 16.6403 1.83406 16.488C1.98407 16.3356 2.18753 16.25 2.39967 16.25C2.61182 16.25 2.81527 16.3356 2.96528 16.488C3.11529 16.6403 3.19956 16.847 3.19956 17.0625V17.875H3.99945C4.2116 17.875 4.41505 17.9606 4.56506 18.113C4.71507 18.2653 4.79934 18.472 4.79934 18.6875C4.79934 18.903 4.71507 19.1097 4.56506 19.262C4.41505 19.4144 4.2116 19.5 3.99945 19.5H0.799891C0.587746 19.5 0.384291 19.4144 0.234283 19.262C0.084274 19.1097 0 18.903 0 18.6875C0 18.472 0.084274 18.2653 0.234283 18.113C0.384291 17.9606 0.587746 17.875 0.799891 17.875H1.59978Z" fill="#979797"/>
</svg>
