<svg width="24" height="24" viewBox="0 0 24 24" fill="none" xmlns="http://www.w3.org/2000/svg">
<path d="M12.7996 0C11.2604 0 10.0476 0.363 9.11161 0.963C8.17881 1.5585 7.57081 2.3565 7.17561 3.153C6.64761 4.212 6.47801 5.3085 6.42361 6.0255C5.39001 6.0975 4.32761 6.33 3.45561 6.876C2.30681 7.5945 1.59961 8.781 1.59961 10.5C1.59961 12.219 2.30681 13.4055 3.45561 14.124C4.54841 14.8065 5.93561 15 7.19961 15H18.3996C19.6492 15 21.0396 14.832 22.1372 14.16C23.2988 13.449 23.9996 12.255 23.9996 10.5C23.9996 8.781 23.2924 7.5945 22.1436 6.876C21.27 6.33 20.2108 6.0975 19.174 6.0255C19.1212 5.3085 18.9516 4.212 18.4252 3.1515C18.0033 2.27063 17.3341 1.51371 16.4892 0.9615C15.5516 0.3645 14.3372 0 12.7996 0ZM7.99961 6.75C7.99961 6.3855 8.00441 5.031 8.62361 3.786C8.92761 3.1755 9.37081 2.613 10.0124 2.202C10.6524 1.7925 11.5388 1.5 12.7996 1.5C14.0604 1.5 14.9484 1.7925 15.5868 2.202C16.2284 2.613 16.67 3.1755 16.974 3.786C17.5948 5.031 17.5996 6.3855 17.5996 6.75C17.5996 6.94891 17.6839 7.13968 17.8339 7.28033C17.984 7.42098 18.1874 7.5 18.3996 7.5C19.5356 7.5 20.5484 7.6815 21.2556 8.124C21.9052 8.5305 22.3996 9.219 22.3996 10.5C22.3996 11.832 21.9004 12.513 21.262 12.9045C20.558 13.3365 19.55 13.5 18.3996 13.5H7.19961C6.06361 13.5 5.05081 13.3185 4.34361 12.876C3.69241 12.4695 3.19961 11.781 3.19961 10.5C3.19961 9.219 3.69241 8.5305 4.34361 8.124C5.05081 7.6815 6.06361 7.5 7.19961 7.5C7.41178 7.5 7.61527 7.42098 7.76529 7.28033C7.91532 7.13968 7.99961 6.94891 7.99961 6.75Z" fill="#8F8F8F"/>
<path d="M9.60039 22.5C10.4491 22.5 11.263 22.1839 11.8631 21.6213C12.4632 21.0587 12.8004 20.2956 12.8004 19.5C12.8004 18.7044 12.4632 17.9413 11.8631 17.3787C11.263 16.8161 10.4491 16.5 9.60039 16.5C8.7517 16.5 7.93777 16.8161 7.33765 17.3787C6.73753 17.9413 6.40039 18.7044 6.40039 19.5C6.40039 20.2956 6.73753 21.0587 7.33765 21.6213C7.93777 22.1839 8.7517 22.5 9.60039 22.5V22.5ZM9.60039 21C9.17604 21 8.76908 20.842 8.46902 20.5607C8.16896 20.2794 8.00039 19.8978 8.00039 19.5C8.00039 19.1022 8.16896 18.7206 8.46902 18.4393C8.76908 18.158 9.17604 18 9.60039 18C10.0247 18 10.4317 18.158 10.7318 18.4393C11.0318 18.7206 11.2004 19.1022 11.2004 19.5C11.2004 19.8978 11.0318 20.2794 10.7318 20.5607C10.4317 20.842 10.0247 21 9.60039 21V21Z" fill="#8F8F8F"/>
<path d="M2.4 24C3.03652 24 3.64697 23.7629 4.09706 23.341C4.54714 22.919 4.8 22.3467 4.8 21.75C4.8 21.1533 4.54714 20.581 4.09706 20.159C3.64697 19.7371 3.03652 19.5 2.4 19.5C1.76348 19.5 1.15303 19.7371 0.702944 20.159C0.252856 20.581 0 21.1533 0 21.75C0 22.3467 0.252856 22.919 0.702944 23.341C1.15303 23.7629 1.76348 24 2.4 24V24ZM2.4 22.5C2.18783 22.5 1.98434 22.421 1.83431 22.2803C1.68429 22.1397 1.6 21.9489 1.6 21.75C1.6 21.5511 1.68429 21.3603 1.83431 21.2197C1.98434 21.079 2.18783 21 2.4 21C2.61217 21 2.81566 21.079 2.96569 21.2197C3.11571 21.3603 3.2 21.5511 3.2 21.75C3.2 21.9489 3.11571 22.1397 2.96569 22.2803C2.81566 22.421 2.61217 22.5 2.4 22.5Z" fill="#8F8F8F"/>
</svg>
